<svg width="28" height="28" viewBox="0 0 28 28" fill="none" xmlns="http://www.w3.org/2000/svg">
<path d="M2.33337 14C2.33337 9.60022 2.33337 7.40034 3.70021 6.0335C5.06705 4.66667 7.26693 4.66667 11.6667 4.66667H16.3334C20.7331 4.66667 22.9331 4.66667 24.2998 6.0335C25.6667 7.40034 25.6667 9.60022 25.6667 14V16.3333C25.6667 20.7331 25.6667 22.9331 24.2998 24.2998C22.9331 25.6667 20.7331 25.6667 16.3334 25.6667H11.6667C7.26693 25.6667 5.06705 25.6667 3.70021 24.2998C2.33337 22.9331 2.33337 20.7331 2.33337 16.3333V14Z" stroke="black" stroke-width="2.5"/>
<path d="M8.16663 4.66667V2.91667" stroke="black" stroke-width="2.5" stroke-linecap="round"/>
<path d="M19.8334 4.66667V2.91667" stroke="black" stroke-width="2.5" stroke-linecap="round"/>
<path d="M2.33337 10.5H25.6667" stroke="black" stroke-width="2.5" stroke-linecap="round"/>
</svg>
