<svg width="41" height="40" viewBox="0 0 41 40" fill="none" xmlns="http://www.w3.org/2000/svg">
<rect x="0.5" width="40" height="40" rx="8" fill="#228FE5" fill-opacity="0.1"/>
<path d="M20.5512 18.6795V14.9103M20.5512 14.9103C21.939 14.9103 23.064 13.7852 23.064 12.3974C23.064 11.0096 21.1794 8 20.5512 8C19.923 8 18.0383 11.0096 18.0383 12.3974C18.0383 13.7852 19.1633 14.9103 20.5512 14.9103ZM30.6024 24.9615L30.0594 25.7708C29.1386 27.1432 27.103 27.0912 26.2533 25.6735L26.204 25.5914C25.351 24.1682 23.2889 24.1679 22.4353 25.5906C21.5819 27.0129 19.5201 27.0125 18.6668 25.5901C17.8132 24.1674 15.751 24.167 14.8973 25.5897L14.8471 25.6734C13.9949 27.0938 11.9537 27.1423 11.0349 25.7641L10.4999 24.9615M30.6024 32.5V23.7051C30.6024 20.9296 28.3523 18.6795 25.5768 18.6795H15.5255C12.7499 18.6795 10.4999 20.9296 10.4999 23.7051V32.5H30.6024Z" stroke="#228FE5" stroke-width="2" stroke-linecap="round" stroke-linejoin="round"/>
</svg>
